<svg width="1400" height="820" viewBox="0 0 1400 820" fill="none" xmlns="http://www.w3.org/2000/svg">
  <defs>
    <linearGradient id="bg" x1="120" y1="70" x2="1240" y2="760" gradientUnits="userSpaceOnUse">
      <stop stop-color="#111827"/>
      <stop offset="1" stop-color="#020617"/>
    </linearGradient>
    <linearGradient id="accent" x1="210" y1="140" x2="970" y2="560" gradientUnits="userSpaceOnUse">
      <stop stop-color="#8B5CF6"/>
      <stop offset="1" stop-color="#2563EB"/>
    </linearGradient>
    <filter id="blur" x="-40%" y="-40%" width="180%" height="180%">
      <feGaussianBlur stdDeviation="46"/>
    </filter>
  </defs>

  <rect width="1400" height="820" rx="36" fill="url(#bg)"/>
  <circle cx="252" cy="170" r="130" fill="#8B5CF6" fill-opacity="0.18" filter="url(#blur)"/>
  <circle cx="1180" cy="150" r="140" fill="#2563EB" fill-opacity="0.16" filter="url(#blur)"/>
  <circle cx="1110" cy="650" r="150" fill="#0EA5E9" fill-opacity="0.08" filter="url(#blur)"/>

  <rect x="66" y="58" width="1268" height="704" rx="28" fill="white" fill-opacity="0.035" stroke="white" stroke-opacity="0.12"/>

  <g>
    <rect x="108" y="104" width="54" height="54" rx="16" fill="url(#accent)"/>
    <path d="M134 119C139.523 119 144 123.477 144 129V145C144 150.523 139.523 155 134 155C128.477 155 124 150.523 124 145V129C124 123.477 128.477 119 134 119Z" stroke="white" stroke-width="3"/>
    <path d="M151 141C151 150.389 143.389 158 134 158C124.611 158 117 150.389 117 141" stroke="white" stroke-width="3" stroke-linecap="round"/>
    <path d="M134 159V169" stroke="white" stroke-width="3" stroke-linecap="round"/>
    <path d="M127 169H141" stroke="white" stroke-width="3" stroke-linecap="round"/>
  </g>

  <text x="184" y="126" fill="#F8FAFC" font-family="Arial, Helvetica, sans-serif" font-size="38" font-weight="700">Voice Clone</text>
  <text x="184" y="162" fill="#94A3B8" font-family="Arial, Helvetica, sans-serif" font-size="22">Local AI voice studio powered by Qwen3-TTS and faster-whisper</text>

  <text x="108" y="240" fill="#E2E8F0" font-family="Arial, Helvetica, sans-serif" font-size="60" font-weight="700">Clone, transcribe, and convert voices</text>
  <text x="108" y="290" fill="#CBD5E1" font-family="Arial, Helvetica, sans-serif" font-size="28">FastAPI backend, Next.js frontend, streaming progress, and on-disk voice profiles.</text>

  <rect x="108" y="336" width="212" height="52" rx="26" fill="url(#accent)"/>
  <text x="150" y="369" fill="white" font-family="Arial, Helvetica, sans-serif" font-size="22" font-weight="700">Local-first workflow</text>

  <rect x="340" y="336" width="170" height="52" rx="26" fill="white" fill-opacity="0.05" stroke="white" stroke-opacity="0.12"/>
  <text x="386" y="369" fill="#E2E8F0" font-family="Arial, Helvetica, sans-serif" font-size="22" font-weight="700">SSE progress</text>

  <rect x="530" y="336" width="198" height="52" rx="26" fill="white" fill-opacity="0.05" stroke="white" stroke-opacity="0.12"/>
  <text x="568" y="369" fill="#E2E8F0" font-family="Arial, Helvetica, sans-serif" font-size="22" font-weight="700">Reusable voices</text>

  <g>
    <rect x="788" y="144" width="472" height="560" rx="26" fill="white" fill-opacity="0.05" stroke="white" stroke-opacity="0.14"/>
    <rect x="822" y="184" width="404" height="74" rx="20" fill="white" fill-opacity="0.06" stroke="white" stroke-opacity="0.12"/>
    <text x="852" y="228" fill="#F8FAFC" font-family="Arial, Helvetica, sans-serif" font-size="28" font-weight="700">Studio Workflows</text>

    <rect x="822" y="286" width="186" height="150" rx="20" fill="white" fill-opacity="0.05" stroke="#A78BFA" stroke-opacity="0.35"/>
    <text x="850" y="326" fill="#E9D5FF" font-family="Arial, Helvetica, sans-serif" font-size="24" font-weight="700">Voice Profiles</text>
    <text x="850" y="360" fill="#CBD5E1" font-family="Arial, Helvetica, sans-serif" font-size="18">Record or upload a</text>
    <text x="850" y="386" fill="#CBD5E1" font-family="Arial, Helvetica, sans-serif" font-size="18">reference clip, then save</text>
    <text x="850" y="412" fill="#CBD5E1" font-family="Arial, Helvetica, sans-serif" font-size="18">audio + transcript pairs.</text>

    <rect x="1040" y="286" width="186" height="150" rx="20" fill="white" fill-opacity="0.05" stroke="#60A5FA" stroke-opacity="0.35"/>
    <text x="1074" y="326" fill="#DBEAFE" font-family="Arial, Helvetica, sans-serif" font-size="24" font-weight="700">Synthesize</text>
    <text x="1074" y="360" fill="#CBD5E1" font-family="Arial, Helvetica, sans-serif" font-size="18">Generate new text in</text>
    <text x="1074" y="386" fill="#CBD5E1" font-family="Arial, Helvetica, sans-serif" font-size="18">a saved speaking style</text>
    <text x="1074" y="412" fill="#CBD5E1" font-family="Arial, Helvetica, sans-serif" font-size="18">with controls.</text>

    <rect x="822" y="468" width="186" height="150" rx="20" fill="white" fill-opacity="0.05" stroke="#22D3EE" stroke-opacity="0.35"/>
    <text x="858" y="508" fill="#CFFAFE" font-family="Arial, Helvetica, sans-serif" font-size="24" font-weight="700">Transcribe</text>
    <text x="858" y="542" fill="#CBD5E1" font-family="Arial, Helvetica, sans-serif" font-size="18">Turn media into clean</text>
    <text x="858" y="568" fill="#CBD5E1" font-family="Arial, Helvetica, sans-serif" font-size="18">text plus subtitle-ready</text>
    <text x="858" y="594" fill="#CBD5E1" font-family="Arial, Helvetica, sans-serif" font-size="18">timed segments.</text>

    <rect x="1040" y="468" width="186" height="150" rx="20" fill="white" fill-opacity="0.05" stroke="#38BDF8" stroke-opacity="0.35"/>
    <text x="1064" y="508" fill="#E0F2FE" font-family="Arial, Helvetica, sans-serif" font-size="24" font-weight="700">Voice Convert</text>
    <text x="1064" y="542" fill="#CBD5E1" font-family="Arial, Helvetica, sans-serif" font-size="18">Transcribe source audio</text>
    <text x="1064" y="568" fill="#CBD5E1" font-family="Arial, Helvetica, sans-serif" font-size="18">and respeak it in another</text>
    <text x="1064" y="594" fill="#CBD5E1" font-family="Arial, Helvetica, sans-serif" font-size="18">saved voice.</text>
  </g>

  <g>
    <rect x="108" y="448" width="602" height="242" rx="24" fill="white" fill-opacity="0.05" stroke="white" stroke-opacity="0.12"/>
    <text x="146" y="494" fill="#F8FAFC" font-family="Arial, Helvetica, sans-serif" font-size="28" font-weight="700">Built for practical local workflows</text>

    <circle cx="154" cy="544" r="7" fill="#A78BFA"/>
    <text x="178" y="552" fill="#CBD5E1" font-family="Arial, Helvetica, sans-serif" font-size="22">One heavy model at a time to reduce memory stalls</text>

    <circle cx="154" cy="590" r="7" fill="#60A5FA"/>
    <text x="178" y="598" fill="#CBD5E1" font-family="Arial, Helvetica, sans-serif" font-size="22">Audio uploads normalized to WAV for browser format compatibility</text>

    <circle cx="154" cy="636" r="7" fill="#22D3EE"/>
    <text x="178" y="644" fill="#CBD5E1" font-family="Arial, Helvetica, sans-serif" font-size="22">Base64 audio delivery avoids an extra generated-file fetch step</text>
  </g>
</svg>
